<?xml version="1.0" encoding="utf-8"?>
<!-- Generator: Adobe Illustrator 21.0.0, SVG Export Plug-In . SVG Version: 6.00 Build 0)  -->
<svg version="1.1" id="Layer_1" xmlns="http://www.w3.org/2000/svg" xmlns:xlink="http://www.w3.org/1999/xlink" x="0px" y="0px"
	 viewBox="0 0 131.9 33" style="enable-background:new 0 0 131.9 33;" xml:space="preserve">
<style type="text/css">
	.st0{fill:#3384F2;}
</style>
<g>
	<g>
		<g>
			<g>
				<path class="st0" d="M46.9,32.5h4.3v-17h5.3v-3.6h-5.3V7.8c0-2.5,1.1-3.7,3.3-3.7c1.2,0,2.2,0.3,3.4,1V1.2c-1.1-0.7-2.4-1-3.9-1
					c-4.6,0-7,2.7-7,7.6v4.1h-3.3v3.6H47C46.9,15.5,46.9,32.5,46.9,32.5z"/>
			</g>
		</g>
		<g>
			<g>
				<path class="st0" d="M67.2,11.5c-5.8,0-9.9,4.5-9.9,10.9S61.5,33,68,33c2.9,0,5.5-0.7,7.2-1.9v-3.7c-2.1,1.3-4.2,1.9-6.8,1.9
					c-3.2,0-6.7-2-6.9-5.9v-0.3H76v-2.2C76,14.9,72.8,11.5,67.2,11.5z M72,20.4H61.6v-0.2c0.6-3.2,2.7-5.2,5.5-5.2
					c3,0,4.8,1.9,4.9,5.2V20.4z"/>
			</g>
		</g>
		<g>
			<g>
				<path class="st0" d="M77.4,15.5h3.2v11.2c0,5.5,3.9,6.3,6.1,6.3c1.9,0,3.5-0.4,4.9-1v-3.8c-1.3,0.7-2.4,1-3.7,1
					c-2.1,0-3-1.1-3-3.5V15.5h5.9v-3.6h-5.9V6.8h-4.3v5.1h-3.2V15.5L77.4,15.5z"/>
			</g>
		</g>
		<g>
			<g>
				<path class="st0" d="M104,11.5c-6.4,0-10.8,4.4-10.8,10.8S97.6,33,104,33c2.2,0,4.2-0.5,6-1.5v-4c-1.7,1.1-3.5,1.7-5.4,1.7
					c-4.2,0-7.1-2.8-7.1-7s2.7-7,6.9-7c2,0,3.8,0.6,5.4,1.8v-4.1C107.9,11.9,106.2,11.5,104,11.5z"/>
			</g>
		</g>
		<g>
			<g>
				<path class="st0" d="M127.6,32.5h4.3V19.2c0-5.1-2.7-7.8-8-7.8c-2.2,0-4.2,0.5-5.4,1l-0.2,0.1V0.7H114v31.8h4.3V16.1h0.1
					c1.3-0.5,3-0.7,4.6-0.7c3,0,4.7,1.5,4.7,4.3L127.6,32.5L127.6,32.5z"/>
			</g>
		</g>
	</g>
	<g>
		<g>
			<g>
				<polygon class="st0" points="21.6,6.5 21.6,25.5 32.5,2.6 32.5,0 				"/>
			</g>
			<g>
				<polygon class="st0" points="7.8,2.6 18.6,25.5 18.6,6.5 7.8,0 				"/>
			</g>
		</g>
		<g>
			<g>
				<polygon class="st0" points="0,32.6 40.3,32.6 33.3,18.3 28.5,18.3 27.1,21.3 31.5,21.3 35.6,29.7 4.7,29.7 8.8,21.3 13.2,21.3 
					11.8,18.3 6.9,18.3 				"/>
			</g>
		</g>
	</g>
</g>
</svg>
